<?xml version="1.0"?>

<!DOCTYPE svg PUBLIC '-//W3C//DTD SVG 1.0//EN' 'http://www.w3.org/TR/2001/REC-SVG-20010904/DTD/svg10.dtd'>
<svg fill-opacity="1" xmlns:xlink="http://www.w3.org/1999/xlink" color-rendering="auto" color-interpolation="auto" text-rendering="auto" stroke="black" stroke-linecap="square" stroke-miterlimit="10" shape-rendering="auto" stroke-opacity="1" fill="black" stroke-dasharray="none" font-weight="normal" stroke-width="1" xmlns="http://www.w3.org/2000/svg" font-family="&apos;Dialog&apos;" font-style="normal" stroke-linejoin="miter" font-size="12" stroke-dashoffset="0" image-rendering="auto">
  <!--Unicode Character 'LEFT-POINTING MAGNIFYING GLASS' (U+1F50D)-->
  <defs id="genericDefs" />
  <g>
    <g>
      <path d="M279.8438 386.8594 Q279.8438 390.2344 274.5 395.8594 Q270.4219 399.6562 266.3438 403.5938 Q262.4062 408.0938 253.6875 416.1094 Q252.2812 417.2344 249.75 417.2344 Q246.6562 417.2344 238.0781 407.9531 Q238.0781 407.9531 197.4375 367.4531 Q191.9531 362.6719 182.3906 352.2656 Q181.4062 351 181.4062 348.6094 Q181.4062 344.25 187.4531 339.8906 L177.1875 329.625 Q146.3906 352.2656 113.2031 352.2656 Q72.2812 352.2656 41.9062 321.8281 Q11.5312 291.375 11.5312 250.3125 Q11.5312 209.3906 42.0469 179.0938 Q72.5625 148.7812 113.4844 148.7812 Q154.6875 148.7812 185.0625 179.1562 Q215.4375 209.5312 215.4375 250.7344 Q215.4375 282.9375 193.2188 313.7344 L203.0625 323.5781 Q208.5469 318.7969 211.2188 318.7969 Q215.1562 318.7969 223.1719 327.0938 Q235.6875 339.4688 260.7188 364.3594 Q267.1875 370.2656 278.7188 382.7812 Q279.8438 384.3281 279.8438 386.8594 ZM200.5312 326.3906 Q195.3281 321.1875 190.4062 316.9688 Q187.4531 319.6406 185.3438 322.4531 Q188.5781 325.9688 195.6094 332.2969 L200.5312 326.3906 ZM204.8906 248.2031 Q204.8906 210.9375 178.0312 184.0156 Q151.1719 157.0781 113.9062 157.0781 Q76.5 157.0781 49.8438 183.9375 Q23.2031 210.7969 23.2031 248.2031 Q23.2031 285.75 49.7812 312.2656 Q76.3594 338.7656 113.9062 338.7656 Q151.3125 338.7656 178.0938 312.1875 Q204.8906 285.6094 204.8906 248.2031 ZM192.2344 334.125 L182.5312 324.8438 Q181.5469 325.5469 180.1406 327.2344 L189.8438 337.0781 Q191.6719 335.25 192.2344 334.125 ZM253.2656 404.2969 L196.5938 347.7656 L215.0156 329.3438 Q212.625 327.5156 211.2188 327.5156 Q209.25 327.5156 199.8906 337.0156 Q190.5469 346.5 190.5469 348.75 Q190.5469 350.2969 192.7969 352.6875 Q201.0938 361.5469 222.0469 382.0781 Q247.0781 406.6875 249.1875 406.6875 Q251.8594 406.6875 253.2656 404.2969 ZM193.2188 247.9219 Q193.2188 281.5312 170.3594 304.25 Q147.5156 326.9531 114.3281 326.9531 L110.3906 326.9531 Q81.2812 326.9531 58 304.0312 Q34.7344 281.1094 34.7344 252.1406 Q40.3594 277.875 59.9062 293.9844 Q79.4531 310.0781 105.6094 310.0781 Q135 310.0781 155.8125 289.2656 Q176.625 268.4531 176.625 239.0625 Q176.625 214.1719 161.4375 194.7656 Q146.3906 175.7812 122.2031 169.0312 L123.6094 169.0312 Q132.8906 169.0312 147.7969 175.7812 Q169.1719 185.4844 181.1875 204.8281 Q193.2188 224.1562 193.2188 247.9219 ZM99.1406 212.9062 Q99.1406 223.4531 91.3281 231.2656 Q83.5312 239.0625 72.9844 239.0625 Q64.2656 239.0625 57.2344 233.6562 Q50.2031 228.2344 47.8125 219.7969 Q55.5469 231.6094 68.3438 231.6094 Q77.7656 231.6094 84.7188 224.7969 Q91.6875 217.9688 91.6875 208.6875 Q91.6875 194.0625 79.4531 188.1562 Q87.8906 190.8281 93.5156 197.5781 Q99.1406 204.3281 99.1406 212.9062 Z" stroke="none" />
    </g>
  </g>
</svg>
